<?xml version="1.0" encoding="utf-8"?>
<!-- Generator: Adobe Illustrator 25.3.1, SVG Export Plug-In . SVG Version: 6.00 Build 0)  -->
<svg version="1.1" id="Layer_1" xmlns="http://www.w3.org/2000/svg" xmlns:xlink="http://www.w3.org/1999/xlink" x="0px" y="0px"
	 viewBox="0 0 512 512" style="enable-background:new 0 0 512 512;" xml:space="preserve">
<style type="text/css">
	.st0{clip-path:url(#SVGID_2_);fill:#EEE9FF;}
	.st1{clip-path:url(#SVGID_2_);fill:#021A1E;}
	.st2{clip-path:url(#SVGID_2_);}
	.st3{fill:#FFFFFF;}
	.st4{fill:url(#SVGID_3_);}
	.st5{fill:url(#SVGID_4_);}
	.st6{fill:url(#SVGID_5_);}
	.st7{fill:url(#SVGID_6_);}
	.st8{fill:url(#SVGID_7_);}
	.st9{fill:url(#SVGID_8_);}
	.st10{fill:url(#SVGID_9_);}
	.st11{fill:url(#SVGID_10_);}
	.st12{fill:url(#SVGID_11_);}
</style>
<g>
	<g>
		<defs>
			<rect id="SVGID_1_" width="512" height="512"/>
		</defs>
		<clipPath id="SVGID_2_">
			<use xlink:href="#SVGID_1_"  style="overflow:visible;"/>
		</clipPath>
		<rect class="st0" width="512" height="512"/>
		<path class="st1" d="M256,39.71L256,39.71c119.46,0,216.29,96.84,216.29,216.29v0c0,119.46-96.84,216.29-216.29,216.29h0
			c-119.46,0-216.29-96.84-216.29-216.29v0C39.71,136.54,136.54,39.71,256,39.71z"/>
		<g class="st2">
			<g>
				<g>
					<g>
						<path class="st3" d="M111.85,334.31l-17.76-50.05h16.45l10.9,35.72l10.8-35.72h16.35l-17.76,50.05H111.85z"/>
						<path class="st3" d="M158.47,279.82c-2.62,0-4.88-0.94-6.76-2.82c-1.88-1.88-2.83-4.14-2.83-6.76c0-2.62,0.94-4.88,2.83-6.76
							c1.88-1.88,4.14-2.82,6.76-2.82c2.76,0,5.04,0.94,6.86,2.82c1.82,1.88,2.72,4.14,2.72,6.76c0,2.62-0.91,4.88-2.72,6.76
							C163.51,278.88,161.23,279.82,158.47,279.82z M150.7,334.31v-50.05h15.54v50.05H150.7z"/>
						<path class="st3" d="M172.39,334.31v-50.05h15.54v7.77c1.75-2.56,3.97-4.69,6.66-6.41c2.69-1.71,5.78-2.57,9.28-2.57v16.45
							h-4.34c-3.9,0-6.81,0.87-8.73,2.62c-1.92,1.75-2.88,4.64-2.88,8.68v23.51H172.39z"/>
						<g>
							<g>
								<path class="st3" d="M230.12,335.52c-4.64,0-8.91-0.99-12.81-2.98c-3.9-1.98-7.03-4.93-9.38-8.83
									c-2.36-3.9-3.53-8.71-3.53-14.43c0-5.72,1.14-10.53,3.43-14.43c2.29-3.9,5.38-6.85,9.28-8.83c3.9-1.98,8.24-2.98,13.02-2.98
									c4.98,0,9.37,1.03,13.17,3.08c3.8,2.05,6.79,4.98,8.98,8.78c2.19,3.8,3.28,8.32,3.28,13.57c0,0.67-0.02,1.4-0.05,2.17
									c-0.03,0.77-0.12,1.56-0.25,2.37h-35.32c0.2,2.42,0.79,4.34,1.77,5.75c0.98,1.41,2.19,2.44,3.63,3.08
									c1.45,0.64,2.88,0.96,4.29,0.96c1.95,0,3.6-0.4,4.94-1.21c1.35-0.81,2.39-2.05,3.13-3.73h16.65
									c-0.74,3.16-2.22,6.09-4.44,8.78c-2.22,2.69-5,4.84-8.33,6.46C238.24,334.71,234.42,335.52,230.12,335.52z M219.92,304.34
									h19.58c0-2.76-0.91-4.91-2.72-6.46c-1.82-1.55-4.1-2.32-6.86-2.32c-2.69,0-4.91,0.79-6.66,2.37
									C221.5,299.51,220.39,301.65,219.92,304.34z"/>
							</g>
						</g>
						<path class="st3" d="M253.73,334.31l16.55-25.53l-16.95-24.52h17.26l9.59,13.82l8.07-13.82h16.55l-16.75,25.23l17.26,24.82
							h-17.26l-9.59-13.92l-8.07,13.92H253.73z"/>
						<path class="st3" d="M338.29,335.52c-3.16,0-6.16-0.64-8.98-1.92c-2.82-1.28-5.08-3.26-6.76-5.95v6.66h-15.64v-70.64h15.64
							v27.35c1.61-2.62,3.85-4.61,6.71-5.95c2.86-1.35,5.87-2.02,9.03-2.02c4.44,0,8.34,1.13,11.7,3.38c3.36,2.25,6,5.35,7.92,9.28
							c1.92,3.93,2.88,8.43,2.88,13.47c0,4.84-0.91,9.27-2.72,13.27c-1.82,4-4.41,7.18-7.77,9.54
							C346.94,334.34,342.93,335.52,338.29,335.52z M333.65,321.9c2.22,0,4.17-0.54,5.85-1.61c1.68-1.08,2.99-2.57,3.94-4.49
							c0.94-1.92,1.41-4.12,1.41-6.61c0-2.76-0.52-5.06-1.56-6.91c-1.04-1.85-2.41-3.25-4.09-4.19c-1.68-0.94-3.53-1.41-5.55-1.41
							c-2.08,0-3.97,0.5-5.65,1.51c-1.68,1.01-3.03,2.46-4.04,4.34c-1.01,1.88-1.51,4.14-1.51,6.76c0,2.42,0.47,4.59,1.41,6.51
							c0.94,1.92,2.27,3.42,3.99,4.49C329.56,321.36,331.5,321.9,333.65,321.9z"/>
						<path class="st3" d="M386.53,335.52c-4.71,0-8.75-1.21-12.11-3.63c-3.36-2.42-5.94-5.63-7.72-9.64
							c-1.78-4-2.67-8.36-2.67-13.07c0-4.71,0.91-9.05,2.72-13.02c1.82-3.97,4.4-7.15,7.77-9.54c3.36-2.39,7.37-3.58,12.01-3.58
							c3.16,0,6.16,0.66,8.98,1.97s5.08,3.25,6.76,5.8v-27.15h15.64v70.64h-15.64v-6.86c-1.68,2.76-3.9,4.79-6.66,6.11
							C392.85,334.87,389.82,335.52,386.53,335.52z M391.07,321.9c2.08,0,3.97-0.5,5.65-1.51c1.68-1.01,3.03-2.47,4.04-4.39
							c1.01-1.92,1.51-4.15,1.51-6.71c0-2.49-0.47-4.67-1.41-6.56c-0.94-1.88-2.25-3.36-3.93-4.44c-1.68-1.08-3.63-1.61-5.85-1.61
							c-1.68,0-3.38,0.4-5.1,1.21c-1.72,0.81-3.15,2.14-4.29,3.99c-1.14,1.85-1.71,4.29-1.71,7.32c0,2.35,0.45,4.49,1.36,6.41
							c0.91,1.92,2.19,3.45,3.83,4.59C386.81,321.33,388.78,321.9,391.07,321.9z"/>
					</g>
				</g>
				<linearGradient id="SVGID_3_" gradientUnits="userSpaceOnUse" x1="138.6242" y1="224.693" x2="338.3219" y2="224.693">
					<stop  offset="0" style="stop-color:#9A59F3"/>
					<stop  offset="1" style="stop-color:#BB4AE2"/>
				</linearGradient>
				<path class="st4" d="M272.41,272.91c-5.21-0.01-10.43-0.01-15.64-0.01l-21.13-0.01l-17.21,0.01c-4.81,0-9.62-0.01-14.42-0.04
					c-10.86-0.06-20-3.59-27.19-10.48c-6.34-6.08-12.64-12.44-18.73-18.59c-5.74-5.79-11.67-11.78-17.65-17.55
					c-1.72-1.66-1.81-2.38-1.81-2.51c0-0.18,0.15-0.92,2.05-2.77l2.67-2.6c12.32-11.99,25.07-24.4,37-37.21
					c2.34-2.51,4.07-3.73,5.28-3.73c1.23,0,3.02,1.22,5.45,3.74c17.57,18.17,35.83,36.25,53.49,53.72
					c4.56,4.51,9.11,9.02,13.66,13.54c0.23,0.23,0.47,0.5,0.72,0.77c1.26,1.4,3.16,3.51,6.02,3.51c1.73,0,3.36-0.78,4.86-2.31
					c1.49-1.52,2.23-3.18,2.2-4.92c-0.06-2.77-2.03-4.62-3.46-5.96c-0.25-0.24-0.5-0.47-0.73-0.7l-0.24-0.24
					c-5.62-5.71-11.44-11.62-17.4-17.23c-1.46-1.38-1.64-1.89-1.66-1.98l0,0c0.01,0,0.14-0.53,1.34-1.69
					c13.3-12.93,26.64-26.29,39.66-39.72c1.43-1.47,2.02-1.49,2.02-1.49c0.1,0,0.71,0.09,2.53,1.95
					c13.44,13.67,27.34,27.8,41.78,41.64c2.13,2.04,2.45,3.12,2.45,3.58c0,0.83-0.93,2.13-2.76,3.88
					c-6.62,6.33-13.16,12.94-19.48,19.33c-4.63,4.68-9.42,9.53-14.2,14.21c-8.01,7.86-17.9,11.84-29.37,11.84H272.41z"/>
			</g>
		</g>
		<g class="st2">
			<g id="_x3C_Radial_Repeat_x3E__10_">
				<g>
					
						<linearGradient id="SVGID_4_" gradientUnits="userSpaceOnUse" x1="256" y1="-79.4998" x2="1182.3823" y2="-79.4998" gradientTransform="matrix(-1 0 0 -1 512 512)">
						<stop  offset="0" style="stop-color:#9A59F3"/>
						<stop  offset="1" style="stop-color:#BB4AE2"/>
					</linearGradient>
					<path class="st5" d="M-49.75,367.83c-24.19,0.05-48.37,0.06-72.56,0.06l-98.04,0.03l-79.83-0.05c-22.3,0-44.6,0.04-66.9,0.17
						c-50.36,0.29-92.79,16.65-126.12,48.6c-29.4,28.2-58.63,57.69-86.89,86.22c-26.62,26.87-54.15,54.65-81.89,81.41
						c-8,7.72-8.41,11.06-8.41,11.65c0,0.85,0.67,4.29,9.49,12.87l12.37,12.04c57.17,55.64,116.29,113.17,171.65,172.61
						c10.85,11.65,18.86,17.31,24.52,17.31c5.72,0,14-5.68,25.29-17.36c81.52-84.3,166.22-168.14,248.14-249.22
						c21.14-20.92,42.28-41.84,63.39-62.8c1.09-1.08,2.18-2.31,3.32-3.57c5.83-6.48,14.64-16.28,27.9-16.28
						c8,0,15.59,3.6,22.54,10.7c6.93,7.07,10.36,14.75,10.19,22.83c-0.28,12.87-9.4,21.42-16.06,27.67
						c-1.17,1.09-2.32,2.17-3.37,3.23l-1.09,1.11c-26.09,26.5-53.07,53.91-80.71,79.91c-6.78,6.38-7.59,8.75-7.69,9.19l0,0
						c0.05,0,0.67,2.45,6.22,7.84c61.7,59.98,123.59,121.98,183.98,184.26c6.61,6.82,9.36,6.9,9.38,6.9c0.48,0,3.27-0.43,11.74-9.05
						c62.36-63.39,126.83-128.94,193.82-193.15c9.89-9.48,11.37-14.46,11.37-16.59c0-3.84-4.3-9.89-12.78-18
						c-30.72-29.37-61.05-60.03-90.37-89.68c-21.49-21.73-43.71-44.2-65.86-65.92c-37.17-36.46-83.02-54.95-136.25-54.95H-49.75z"/>
				</g>
			</g>
			<g id="_x3C_Radial_Repeat_x3E__9_">
				<g>
					
						<linearGradient id="SVGID_5_" gradientUnits="userSpaceOnUse" x1="256" y1="-79.4998" x2="1182.3823" y2="-79.4998" gradientTransform="matrix(-0.7071 -0.7071 0.7071 -0.7071 256 618.0398)">
						<stop  offset="0" style="stop-color:#9A59F3"/>
						<stop  offset="1" style="stop-color:#BB4AE2"/>
					</linearGradient>
					<path class="st6" d="M-39.27,118.88c-17.14-17.07-34.24-34.16-51.35-51.27l-69.35-69.3l-56.41-56.48
						c-15.77-15.77-31.57-31.51-47.43-47.19c-35.82-35.4-77.39-53.84-123.55-54.82c-40.73-0.85-82.25-0.66-122.41-0.48
						c-37.82,0.17-76.93,0.35-115.47-0.33c-11.11-0.2-13.76,1.87-14.18,2.29c-0.6,0.6-2.55,3.51-2.39,15.81l0.23,17.26
						c1.09,79.77,2.21,162.26-0.68,243.43c-0.57,15.91,1.1,25.58,5.1,29.57c4.05,4.05,13.91,5.88,30.15,5.61
						c117.25-1.97,236.43-1.36,351.68-0.76c29.74,0.15,59.48,0.31,89.23,0.42c1.53,0.01,3.17-0.09,4.87-0.18
						c8.71-0.46,21.87-1.16,31.24,8.22c5.66,5.66,8.47,13.57,8.38,23.5c-0.1,9.9-3.11,17.76-8.94,23.35
						c-9.3,8.9-21.79,8.5-30.92,8.21c-1.6-0.05-3.17-0.11-4.67-0.1l-1.56,0.01c-37.19,0.29-75.65,0.59-113.57-0.57
						c-9.31-0.28-11.56,0.82-11.93,1.06l0,0c0.03,0.03-1.26,2.21-1.15,9.94c1.21,86.04,1.14,173.64-0.2,260.38
						c-0.15,9.5,1.74,11.5,1.76,11.51c0.34,0.34,2.62,2.01,14.7,1.9c88.92-0.73,180.86-1.49,273.63,0.47
						c13.7,0.29,18.26-2.19,19.77-3.69c2.71-2.72,3.95-10.04,3.69-21.77c-0.96-42.49-0.72-85.61-0.49-127.31
						c0.17-30.56,0.34-62.16,0.04-93.18c-0.51-52.07-19.85-97.55-57.49-135.2L-39.27,118.88z"/>
				</g>
			</g>
			<g id="_x3C_Radial_Repeat_x3E__8_">
				<g>
					
						<linearGradient id="SVGID_6_" gradientUnits="userSpaceOnUse" x1="256" y1="-79.4998" x2="1182.3823" y2="-79.4998" gradientTransform="matrix(1.841010e-12 -1 1 1.841010e-12 0 512)">
						<stop  offset="0" style="stop-color:#9A59F3"/>
						<stop  offset="1" style="stop-color:#BB4AE2"/>
					</linearGradient>
					<path class="st7" d="M144.17-49.75c-0.05-24.19-0.06-48.37-0.06-72.56l-0.03-98.04l0.05-79.83c0-22.3-0.04-44.6-0.17-66.9
						c-0.29-50.36-16.65-92.79-48.6-126.12c-28.2-29.4-57.69-58.63-86.22-86.89c-26.87-26.62-54.65-54.15-81.41-81.89
						c-7.72-8-11.06-8.41-11.65-8.41c-0.85,0-4.29,0.67-12.87,9.49l-12.04,12.37C-164.47-591.35-222-532.23-281.44-476.87
						c-11.65,10.85-17.31,18.86-17.31,24.52c0,5.72,5.68,14,17.36,25.29c84.3,81.52,168.14,166.22,249.22,248.14
						c20.92,21.14,41.84,42.28,62.8,63.39c1.08,1.09,2.31,2.18,3.57,3.32c6.48,5.83,16.28,14.64,16.28,27.9
						c0,8-3.6,15.59-10.7,22.54c-7.07,6.93-14.75,10.36-22.83,10.19c-12.87-0.28-21.42-9.4-27.67-16.06
						c-1.09-1.17-2.17-2.32-3.23-3.37l-1.11-1.09c-26.5-26.09-53.91-53.07-79.91-80.71c-6.38-6.78-8.75-7.59-9.19-7.69l0,0
						c0,0.05-2.45,0.67-7.84,6.22c-59.98,61.7-121.98,123.59-184.26,183.98c-6.82,6.61-6.9,9.36-6.9,9.38
						c0,0.48,0.43,3.27,9.05,11.74c63.39,62.36,128.94,126.83,193.15,193.82c9.48,9.89,14.46,11.37,16.59,11.37
						c3.84,0,9.89-4.3,18-12.78c29.37-30.72,60.03-61.05,89.68-90.37c21.73-21.49,44.2-43.71,65.92-65.86
						c36.46-37.17,54.95-83.02,54.95-136.25V-49.75z"/>
				</g>
			</g>
			<g id="_x3C_Radial_Repeat_x3E__7_">
				<g>
					
						<linearGradient id="SVGID_7_" gradientUnits="userSpaceOnUse" x1="256" y1="-79.4998" x2="1182.3823" y2="-79.4998" gradientTransform="matrix(0.7071 -0.7071 0.7071 0.7071 -106.0388 256)">
						<stop  offset="0" style="stop-color:#9A59F3"/>
						<stop  offset="1" style="stop-color:#BB4AE2"/>
					</linearGradient>
					<path class="st8" d="M393.12-39.27c17.07-17.14,34.16-34.24,51.27-51.35l69.3-69.35l56.48-56.41
						c15.77-15.77,31.51-31.57,47.19-47.43c35.4-35.82,53.84-77.39,54.82-123.55c0.85-40.73,0.66-82.25,0.48-122.41
						c-0.17-37.82-0.35-76.93,0.33-115.47c0.2-11.11-1.87-13.76-2.29-14.18c-0.6-0.6-3.51-2.55-15.81-2.39l-17.26,0.23
						c-79.77,1.09-162.26,2.21-243.43-0.68c-15.91-0.57-25.58,1.1-29.57,5.1c-4.05,4.05-5.88,13.91-5.61,30.15
						c1.97,117.25,1.36,236.43,0.76,351.68c-0.15,29.74-0.31,59.48-0.42,89.23c-0.01,1.53,0.09,3.17,0.18,4.87
						c0.46,8.71,1.16,21.87-8.22,31.24c-5.66,5.66-13.57,8.47-23.5,8.38c-9.9-0.1-17.76-3.11-23.35-8.94
						c-8.9-9.3-8.5-21.79-8.21-30.92c0.05-1.6,0.11-3.17,0.1-4.67l-0.01-1.56c-0.29-37.19-0.59-75.65,0.57-113.57
						c0.28-9.31-0.82-11.56-1.06-11.93l0,0c-0.03,0.03-2.21-1.26-9.94-1.15c-86.04,1.21-173.64,1.14-260.38-0.2
						c-9.5-0.15-11.5,1.74-11.51,1.76c-0.34,0.34-2.01,2.62-1.9,14.7c0.73,88.92,1.49,180.86-0.47,273.63
						c-0.29,13.7,2.19,18.26,3.69,19.77c2.72,2.71,10.04,3.95,21.77,3.69c42.49-0.96,85.61-0.72,127.31-0.49
						c30.56,0.17,62.16,0.34,93.18,0.04c52.07-0.51,97.55-19.85,135.2-57.49L393.12-39.27z"/>
				</g>
			</g>
			<g id="_x3C_Radial_Repeat_x3E__6_">
				<g>
					<linearGradient id="SVGID_8_" gradientUnits="userSpaceOnUse" x1="256" y1="-79.4998" x2="1182.3823" y2="-79.4998">
						<stop  offset="0" style="stop-color:#9A59F3"/>
						<stop  offset="1" style="stop-color:#BB4AE2"/>
					</linearGradient>
					<path class="st9" d="M561.75,144.17c24.19-0.05,48.37-0.06,72.56-0.06l98.04-0.03l79.83,0.05c22.3,0,44.6-0.04,66.9-0.17
						c50.36-0.29,92.79-16.65,126.12-48.6c29.4-28.2,58.63-57.69,86.89-86.22c26.62-26.87,54.15-54.65,81.89-81.41
						c8-7.72,8.41-11.06,8.41-11.65c0-0.85-0.67-4.29-9.49-12.87l-12.37-12.04c-57.17-55.64-116.29-113.17-171.65-172.61
						c-10.85-11.65-18.86-17.31-24.52-17.31c-5.72,0-14,5.68-25.29,17.36c-81.52,84.3-166.22,168.14-248.14,249.22
						c-21.14,20.92-42.28,41.84-63.39,62.8c-1.09,1.08-2.18,2.31-3.32,3.57c-5.83,6.48-14.64,16.28-27.9,16.28
						c-8,0-15.59-3.6-22.54-10.7c-6.93-7.07-10.36-14.75-10.19-22.83c0.28-12.87,9.4-21.42,16.06-27.67
						c1.17-1.09,2.32-2.17,3.37-3.23l1.09-1.11c26.09-26.5,53.07-53.91,80.71-79.91c6.78-6.38,7.59-8.75,7.69-9.19l0,0
						c-0.05,0-0.67-2.45-6.22-7.84c-61.7-59.98-123.59-121.98-183.98-184.26c-6.61-6.82-9.36-6.9-9.38-6.9
						c-0.48,0-3.27,0.43-11.74,9.05c-62.36,63.39-126.83,128.94-193.82,193.15C257.47-91.49,256-86.51,256-84.38
						c0,3.84,4.3,9.89,12.78,18c30.72,29.37,61.05,60.03,90.37,89.68c21.49,21.73,43.71,44.2,65.86,65.92
						c37.17,36.46,83.02,54.95,136.25,54.95H561.75z"/>
				</g>
			</g>
			<g id="_x3C_Radial_Repeat_x3E__5_">
				<g>
					
						<linearGradient id="SVGID_9_" gradientUnits="userSpaceOnUse" x1="256" y1="-79.4998" x2="1182.3823" y2="-79.4998" gradientTransform="matrix(0.7071 0.7071 -0.7071 0.7071 256 -106.0388)">
						<stop  offset="0" style="stop-color:#9A59F3"/>
						<stop  offset="1" style="stop-color:#BB4AE2"/>
					</linearGradient>
					<path class="st10" d="M551.27,393.12c17.14,17.07,34.24,34.16,51.35,51.27l69.35,69.3l56.41,56.48
						c15.77,15.77,31.57,31.51,47.43,47.19c35.82,35.4,77.39,53.84,123.55,54.82c40.73,0.85,82.25,0.66,122.41,0.48
						c37.82-0.17,76.93-0.35,115.47,0.33c11.11,0.2,13.76-1.87,14.18-2.29c0.6-0.6,2.55-3.51,2.39-15.81l-0.23-17.26
						c-1.09-79.77-2.21-162.26,0.68-243.43c0.57-15.91-1.1-25.58-5.1-29.57c-4.05-4.05-13.91-5.88-30.15-5.61
						c-117.25,1.97-236.43,1.36-351.68,0.76c-29.74-0.15-59.48-0.31-89.23-0.42c-1.53-0.01-3.17,0.09-4.87,0.18
						c-8.71,0.46-21.87,1.16-31.24-8.22c-5.66-5.66-8.47-13.57-8.38-23.5c0.1-9.9,3.11-17.76,8.94-23.35
						c9.3-8.9,21.79-8.5,30.92-8.21c1.6,0.05,3.17,0.11,4.67,0.1l1.56-0.01c37.19-0.29,75.65-0.59,113.57,0.57
						c9.31,0.28,11.56-0.82,11.93-1.06l0,0c-0.03-0.03,1.26-2.21,1.15-9.94c-1.21-86.04-1.14-173.64,0.2-260.38
						c0.15-9.5-1.74-11.5-1.76-11.51c-0.34-0.34-2.62-2.01-14.7-1.9c-88.92,0.73-180.86,1.49-273.63-0.47
						c-13.7-0.29-18.26,2.19-19.77,3.69c-2.71,2.72-3.95,10.04-3.69,21.77c0.96,42.49,0.72,85.61,0.49,127.31
						c-0.17,30.56-0.34,62.16-0.04,93.18c0.51,52.07,19.85,97.55,57.49,135.2L551.27,393.12z"/>
				</g>
			</g>
			<g id="_x3C_Radial_Repeat_x3E__4_">
				<g>
					
						<linearGradient id="SVGID_10_" gradientUnits="userSpaceOnUse" x1="256" y1="-79.4998" x2="1182.3823" y2="-79.4998" gradientTransform="matrix(-1.842664e-12 1 -1 -1.842664e-12 512 0)">
						<stop  offset="0" style="stop-color:#9A59F3"/>
						<stop  offset="1" style="stop-color:#BB4AE2"/>
					</linearGradient>
					<path class="st11" d="M367.83,561.75c0.05,24.19,0.06,48.37,0.06,72.56l0.03,98.04l-0.05,79.83c0,22.3,0.04,44.6,0.17,66.9
						c0.29,50.36,16.65,92.79,48.6,126.12c28.2,29.4,57.69,58.63,86.22,86.89c26.87,26.62,54.65,54.15,81.41,81.89
						c7.72,8,11.06,8.41,11.65,8.41c0.85,0,4.29-0.67,12.87-9.49l12.04-12.37c55.64-57.17,113.17-116.29,172.61-171.65
						c11.65-10.85,17.31-18.86,17.31-24.52c0-5.72-5.68-14-17.36-25.29c-84.3-81.52-168.14-166.22-249.22-248.14
						c-20.92-21.14-41.84-42.28-62.8-63.39c-1.08-1.09-2.31-2.18-3.57-3.32c-6.48-5.83-16.28-14.64-16.28-27.9
						c0-8,3.6-15.59,10.7-22.54c7.07-6.93,14.75-10.36,22.83-10.19c12.87,0.28,21.42,9.4,27.67,16.06c1.09,1.17,2.17,2.32,3.23,3.37
						l1.11,1.09c26.5,26.09,53.91,53.07,79.91,80.71c6.38,6.78,8.75,7.59,9.19,7.69l0,0c0-0.05,2.45-0.67,7.84-6.22
						c59.98-61.7,121.98-123.59,184.26-183.98c6.82-6.61,6.9-9.36,6.9-9.38c0-0.48-0.43-3.27-9.05-11.74
						c-63.39-62.36-128.94-126.83-193.15-193.82c-9.48-9.89-14.46-11.37-16.59-11.37c-3.84,0-9.89,4.3-18,12.78
						c-29.37,30.72-60.03,61.05-89.68,90.37c-21.73,21.49-44.2,43.71-65.92,65.86c-36.46,37.17-54.95,83.02-54.95,136.25V561.75z"/>
				</g>
			</g>
			<g id="_x3C_Radial_Repeat_x3E__3_">
				<g>
					
						<linearGradient id="SVGID_11_" gradientUnits="userSpaceOnUse" x1="256" y1="-79.4998" x2="1182.3823" y2="-79.4998" gradientTransform="matrix(-0.7071 0.7071 -0.7071 -0.7071 618.0398 256)">
						<stop  offset="0" style="stop-color:#9A59F3"/>
						<stop  offset="1" style="stop-color:#BB4AE2"/>
					</linearGradient>
					<path class="st12" d="M118.88,551.27c-17.07,17.14-34.16,34.24-51.27,51.35l-69.3,69.35l-56.48,56.41
						c-15.77,15.77-31.51,31.57-47.19,47.43c-35.4,35.82-53.84,77.39-54.82,123.55c-0.85,40.73-0.66,82.25-0.48,122.41
						c0.17,37.82,0.35,76.93-0.33,115.47c-0.2,11.11,1.87,13.76,2.29,14.18c0.6,0.6,3.51,2.55,15.81,2.39l17.26-0.23
						c79.77-1.09,162.26-2.21,243.43,0.68c15.91,0.57,25.58-1.1,29.57-5.1c4.05-4.05,5.88-13.91,5.61-30.15
						c-1.97-117.25-1.36-236.43-0.76-351.68c0.15-29.74,0.31-59.48,0.42-89.23c0.01-1.53-0.09-3.17-0.18-4.87
						c-0.46-8.71-1.16-21.87,8.22-31.24c5.66-5.66,13.57-8.47,23.5-8.38c9.9,0.1,17.76,3.11,23.35,8.94
						c8.9,9.3,8.5,21.79,8.21,30.92c-0.05,1.6-0.11,3.17-0.1,4.67l0.01,1.56c0.29,37.19,0.59,75.65-0.57,113.57
						c-0.28,9.31,0.82,11.56,1.06,11.93l0,0c0.03-0.03,2.21,1.26,9.94,1.15c86.04-1.21,173.64-1.14,260.38,0.2
						c9.5,0.15,11.5-1.74,11.51-1.76c0.34-0.34,2.01-2.62,1.9-14.7c-0.73-88.92-1.49-180.86,0.47-273.63
						c0.29-13.7-2.19-18.26-3.69-19.77c-2.72-2.71-10.04-3.95-21.77-3.69c-42.49,0.96-85.61,0.72-127.31,0.49
						c-30.56-0.17-62.16-0.34-93.18-0.04c-52.07,0.51-97.55,19.85-135.2,57.49L118.88,551.27z"/>
				</g>
			</g>
		</g>
	</g>
</g>
</svg>
